<?xml version="1.0" encoding="UTF-8"?>
<svg version="1.1" xmlns="http://www.w3.org/2000/svg" width="512" height="512">
<path d="M0 0 C1.89105469 0.01160156 1.89105469 0.01160156 3.8203125 0.0234375 C16.35262381 1.44874191 23.45431904 9.34382803 31.89013672 17.86376953 C33.27303062 19.23852363 34.65719559 20.61200014 36.04252625 21.98429871 C39.78551339 25.70002631 43.50938393 29.4343703 47.22921515 33.17326212 C51.13275384 37.09203919 55.05096541 40.99610184 58.96682739 44.90255737 C65.53917115 51.46399915 72.09879478 58.03795831 78.65136719 64.61914062 C86.21672425 72.21714828 93.80345351 79.79329959 101.40164554 87.35846055 C107.93609123 93.86563898 114.45872236 100.38448662 120.97170269 106.91314971 C124.85667518 110.80745464 128.74553609 114.69764392 132.64510727 118.57733536 C136.31140846 122.22624696 139.96261164 125.88963512 143.60289955 129.56449318 C144.93765615 130.90715276 146.27748831 132.2447895 147.62282753 133.57684517 C156.68360434 142.5563999 163.41787381 150.11343166 163.5 163.5 C163.53351563 164.75554687 163.56703125 166.01109375 163.6015625 167.3046875 C162.25034677 180.0883162 152.38030939 188.97901834 143.77636719 197.48413086 C142.44072112 198.82628233 141.10635979 200.16971333 139.7731781 201.51431274 C136.17313099 205.13730058 132.55463242 208.74130383 128.93166637 212.34135509 C125.13003215 216.12397483 121.34355792 219.92172105 117.55474854 223.71717834 C111.19337955 230.08487328 104.81986243 236.44020822 98.43896484 242.78833008 C91.07538526 250.11439694 83.73166856 257.45992592 76.39820552 264.81613058 C69.323351 271.91197279 62.23440965 278.99358087 55.13907623 286.06894112 C52.1282954 289.07176212 49.12252417 292.07946725 46.12075043 295.09129143 C42.58293563 298.6396989 39.03291238 302.17543362 35.47331429 305.70198441 C34.17346389 306.99366565 32.87777704 308.28955327 31.58673668 309.59004021 C22.62433191 318.61077084 14.11873197 326.64242455 0.6875 326.875 C-10.26899167 326.75813076 -17.541397 322.31439381 -25.125 314.625 C-26.99893909 312.75887017 -28.87340523 310.89328285 -30.74855042 309.02836609 C-31.88005302 307.90272764 -33.01154241 306.77707592 -34.14302063 305.65141296 C-34.7420048 305.05553061 -35.34098896 304.45964825 -35.95812416 303.84570885 C-49.76576459 290.108895 -63.56189493 276.36056956 -77.35154819 262.60570049 C-85.32034678 254.65754449 -93.29287733 246.71319932 -101.27416992 238.77758789 C-108.24716368 231.84448336 -115.21307877 224.90435733 -122.17061466 217.95573932 C-125.84990445 214.28165646 -129.53261351 210.61115701 -133.22384834 206.94907188 C-136.69549236 203.50462783 -140.15757837 200.05085719 -143.6126442 196.58978653 C-144.87976607 195.32376241 -146.15030343 194.06114578 -147.42453957 192.80228233 C-149.16861749 191.07821538 -150.8997901 189.34210818 -152.62843323 187.60258484 C-153.13086739 187.11180205 -153.63330155 186.62101925 -154.15096098 186.11536425 C-160.31123526 179.85029604 -163.2172768 172.76711188 -163.4375 164.0625 C-163.17413469 146.00002939 -149.19819243 135.54739964 -137.36010742 123.65136719 C-136.09731734 122.37901505 -134.83469289 121.1064985 -133.57221985 119.83383179 C-129.46215027 115.6926806 -125.34679524 111.55680567 -121.23046875 107.421875 C-120.52721663 106.71532556 -119.82396451 106.00877611 -119.09940171 105.28081608 C-112.45519878 98.60587278 -105.80895965 91.93296308 -99.15787792 85.2648735 C-90.68781664 76.77288532 -82.22799201 68.2709759 -73.78174323 59.75530124 C-67.81913723 53.74536925 -61.84500093 47.74705251 -55.86231309 41.75711179 C-52.29869129 38.18855213 -48.74023331 34.61518647 -45.1941433 31.02919769 C-41.85914903 27.65716587 -38.51000693 24.29984179 -35.1498394 20.95289993 C-33.92566471 19.7286716 -32.70653473 18.49937252 -31.49314499 17.26445389 C-22.67694613 8.30036539 -13.36977465 -0.35689337 0 0 Z " fill="#FEE7AF" transform="translate(349.125,-0.625)"/>
<path d="M0 0 C0.79607245 -0.00382555 1.5921449 -0.00765109 2.41234076 -0.01159257 C5.05903033 -0.02184686 7.70549988 -0.01794492 10.35220337 -0.01396179 C12.25831807 -0.01831247 14.16443101 -0.0234968 16.07054138 -0.02944946 C21.23381735 -0.04281258 26.39702 -0.04342111 31.56030989 -0.04088616 C35.87678985 -0.03981461 40.19325509 -0.04470455 44.50973189 -0.04949158 C54.69632869 -0.06057752 64.88288861 -0.06102934 75.06948853 -0.05497742 C85.56456469 -0.04893793 96.05950677 -0.06125015 106.55456007 -0.08254749 C115.57816621 -0.10018291 124.60172976 -0.10616177 133.6253525 -0.10290974 C139.00904464 -0.10109981 144.39264113 -0.10370412 149.7763176 -0.11762428 C154.84071218 -0.13022953 159.90489827 -0.12823298 164.96928978 -0.11521339 C166.8227629 -0.11285393 168.67625082 -0.11555962 170.52970695 -0.12383652 C184.31582478 -0.18093829 195.22238805 0.27883871 205.70230103 10.26069641 C215.08275203 20.20257092 214.13622055 33.40083187 214.09048462 46.13764954 C214.09455482 48.04406026 214.09989921 49.95046862 214.10641479 51.85687256 C214.12004081 57.01180543 214.11480924 62.16655729 214.10527754 67.32149315 C214.09765647 72.7286819 214.10473333 78.13585565 214.10943604 83.54304504 C214.11488646 92.62164579 214.10772067 101.70017321 214.09341431 110.77876282 C214.0770892 121.25911922 214.08237821 131.7393005 214.09889352 142.21965265 C214.11252869 151.23481315 214.11441812 160.24992108 214.10657752 169.26508856 C214.10191217 174.64203605 214.10124478 180.01890136 214.11118698 185.39584351 C214.11988393 190.45206927 214.11378497 195.50807031 214.09650421 200.56427193 C214.09255392 202.41451711 214.09364829 204.26478137 214.10029221 206.11501884 C214.14281409 219.16473588 213.79957339 230.96226903 204.70230103 241.26069641 C197.52706868 247.26577438 190.71503673 249.56607711 181.37263489 249.52812195 C180.54898085 249.53265306 179.72532682 249.53718417 178.87671357 249.54185259 C176.12475228 249.55448357 173.37298922 249.55287707 170.6210022 249.55122375 C168.64459479 249.55720982 166.66818972 249.56401555 164.69178772 249.57157898 C159.3280609 249.5892383 153.96439791 249.59393434 148.60064483 249.59521055 C145.24799611 249.59663275 141.89536358 249.60090367 138.54271889 249.60620499 C126.84191483 249.62470509 115.14115633 249.63287563 103.44033813 249.63130188 C92.5408109 249.63010051 81.6414817 249.65120208 70.74200457 249.68278921 C61.37790439 249.70895778 52.01386887 249.71966893 42.64973241 249.71839106 C37.05976957 249.7178816 31.46998274 249.7235563 25.88005638 249.74474716 C20.62112758 249.76413918 15.36254252 249.76424725 10.10360146 249.7497139 C8.17714052 249.74762591 6.25065802 249.75232608 4.32423401 249.76443481 C-8.62407533 249.84052991 -17.7205531 249.24204614 -27.57504272 240.05366516 C-33.89777032 233.47286705 -35.601362 226.84938714 -35.56512451 217.9377594 C-35.56965562 217.11481093 -35.57418674 216.29186246 -35.57885516 215.44397616 C-35.59148614 212.6943488 -35.58987962 209.94491984 -35.58822632 207.19526672 C-35.59421243 205.22048183 -35.60101817 203.24569928 -35.60858154 201.2709198 C-35.62624154 195.91125793 -35.63093696 190.55165993 -35.63221312 185.19197178 C-35.63363541 181.84132537 -35.63790653 178.49069517 -35.64320755 175.1400528 C-35.66170869 163.44457978 -35.66987816 151.74915233 -35.66830444 140.05366516 C-35.66710342 129.16211024 -35.68819793 118.27075361 -35.71979177 107.37924886 C-35.74597003 98.02022854 -35.75667107 88.66127292 -35.75539362 79.30221629 C-35.7548844 73.71613389 -35.76054594 68.13022767 -35.78174973 62.54418182 C-35.80115777 57.28771224 -35.80123888 52.03158645 -35.78671646 46.77510452 C-35.78463038 44.85067618 -35.78931725 42.92622618 -35.80143738 41.00183487 C-35.8683505 29.63751963 -35.5682483 20.79212479 -29.17269897 11.01069641 C-20.76493195 2.96848448 -11.42193878 -0.05924589 0 0 Z " fill="#FEE7AF" transform="translate(35.297698974609375,262.7393035888672)"/>
<path d="M0 0 C0.61875 -0.00773437 1.2375 -0.01546875 1.875 -0.0234375 C8.672109 1.25102044 13.06765818 5.94774523 17.77734375 10.61328125 C18.87170494 11.68910713 18.87170494 11.68910713 19.98817444 12.78666687 C21.52763106 14.30659724 23.06298828 15.83068947 24.59448242 17.35864258 C26.90932366 19.65949394 29.24941925 21.93231274 31.59179688 24.20507812 C43.25104318 35.69191934 53.08807971 47.60952703 53.4375 64.875 C53.20640477 77.66680069 48.6601128 88.92052434 40 98.375 C32.33110712 105.54782813 24.28718021 109.5652183 14 111.375 C14.04640625 112.18582031 14.0928125 112.99664062 14.140625 113.83203125 C14.55238572 126.46426205 10.89204148 136.45357642 3 146.375 C-2.28248845 151.51099203 -8.1419685 155.65543578 -15 158.375 C-15.73476563 158.67277344 -16.46953125 158.97054687 -17.2265625 159.27734375 C-28.4741092 163.2524539 -40.25413395 162.42393706 -51 157.375 C-58.59314746 153.36777379 -64.44177699 148.50251786 -70.4375 142.3984375 C-71.28425293 141.55076813 -72.13100586 140.70309875 -73.00341797 139.82974243 C-74.77609182 138.05106708 -76.54394408 136.26757436 -78.30712891 134.47949219 C-81.00963171 131.74023731 -83.72803916 129.0175649 -86.44921875 126.296875 C-88.17542975 124.56084052 -89.90072338 122.82389327 -91.625 121.0859375 C-92.84207642 119.86552261 -92.84207642 119.86552261 -94.08374023 118.62045288 C-94.83212158 117.85931183 -95.58050293 117.09817078 -96.3515625 116.31396484 C-97.00979004 115.64811371 -97.66801758 114.98226257 -98.34619141 114.29623413 C-101.46929712 110.66811337 -102.30843112 107.75301802 -102.375 103 C-102.40335937 102.08476562 -102.43171875 101.16953125 -102.4609375 100.2265625 C-101.27712554 92.90298007 -94.5760297 87.66082894 -89.56298828 82.66333008 C-88.28909744 81.38177284 -88.28909744 81.38177284 -86.98947144 80.07432556 C-84.67088267 77.74425656 -82.34785719 75.41873541 -80.02225351 73.09567094 C-78.07711738 71.15160832 -76.13497446 69.20456875 -74.19276798 67.25757998 C-69.60985297 62.66359241 -65.02165819 58.07492556 -60.43017578 53.48950195 C-55.70103986 48.76641075 -50.98116752 44.03420463 -46.26570714 39.29746324 C-42.20813973 35.22226197 -38.14476945 31.15291084 -34.07674968 27.08814353 C-31.65090889 24.66411216 -29.22732548 22.23792959 -26.8093605 19.80603981 C-24.11194847 17.09629728 -21.40517467 14.39626146 -18.69580078 11.69848633 C-17.90079163 10.89583344 -17.10578247 10.09318054 -16.28668213 9.26620483 C-6.84576753 -0.08557209 -6.84576753 -0.08557209 0 0 Z " fill="#FD5E49" transform="translate(365,75.625)"/>
<path d="M0 0 C9.68870438 5.4635551 12.92956424 13.39494358 16.2746582 23.53808594 C16.66553116 24.69186737 17.05640411 25.8456488 17.4591217 27.03439331 C18.52170017 30.1804564 19.57340923 33.32971961 20.61928964 36.48134518 C21.49698248 39.12170929 22.38199294 41.75959652 23.26691693 44.39754415 C25.35631488 50.62663823 27.43319371 56.85980809 29.50219727 63.09570312 C31.62934708 69.50613352 33.77722441 75.90934377 35.93553191 82.30934405 C37.79477742 87.82494485 39.64106133 93.34476871 41.47718972 98.86810803 C42.57092334 102.15782081 43.66928682 105.44578526 44.78014565 108.72975922 C46.01979199 112.39669597 47.23231421 116.07229476 48.44262695 119.74902344 C48.80880127 120.82056671 49.17497559 121.89210999 49.55224609 122.99612427 C52.05895043 130.71932613 54.01307043 138.71829453 50.41015625 146.33984375 C46.36368584 150.70577235 43.18085046 153.12103923 37.16015625 153.52734375 C30.89667581 153.16996799 28.37142932 151.52770169 24.03515625 146.90234375 C22.05515625 141.62234375 20.07515625 136.34234375 18.03515625 130.90234375 C-0.44484375 130.90234375 -18.92484375 130.90234375 -37.96484375 130.90234375 C-40.43984375 138.32734375 -40.43984375 138.32734375 -42.96484375 145.90234375 C-47.04970129 150.19490591 -49.75548469 152.7525567 -55.65234375 153.15234375 C-60.64943082 153.05276412 -64.71851184 151.94446367 -68.51171875 148.49609375 C-71.98566561 144.358584 -72.35451128 140.91226495 -72.23443604 135.64572144 C-71.77313505 130.95151128 -70.30188249 126.71041948 -68.73828125 122.28125 C-68.39886505 121.27983978 -68.05944885 120.27842957 -67.70974731 119.24667358 C-66.60001251 115.9812539 -65.46986512 112.72329212 -64.33984375 109.46484375 C-63.56141124 107.18426824 -62.78473956 104.903091 -62.00976562 102.62133789 C-60.82425782 99.13086524 -59.63789226 95.64072407 -58.44610596 92.15238953 C-54.97305829 81.97962171 -51.63422585 71.76649289 -48.33520508 61.53619385 C-44.24444201 48.86314757 -40.12689351 36.19801357 -35.83984375 23.58984375 C-35.49759766 22.56431396 -35.15535156 21.53878418 -34.80273438 20.48217773 C-32.49400313 13.77954072 -30.05549789 8.27733945 -24.46484375 3.65234375 C-23.89765625 3.1728125 -23.33046875 2.69328125 -22.74609375 2.19921875 C-16.18440306 -2.57815254 -7.54164455 -2.79209765 0 0 Z " fill="#FD5E49" transform="translate(133.96484375,312.09765625)"/>
<path d="M0 0 C4.80139866 -0.07484195 9.60244862 -0.12892454 14.40429688 -0.16479492 C16.03358891 -0.17976766 17.66284145 -0.20015321 19.29199219 -0.22631836 C32.98007052 -0.44045701 43.59879623 0.09311086 54 10 C63.380451 19.94187451 62.43391953 33.14013546 62.38818359 45.87695312 C62.39225379 47.78336385 62.39759819 49.68977221 62.40411377 51.59617615 C62.41773978 56.75110902 62.41250822 61.90586088 62.40297651 67.06079674 C62.39535544 72.46798549 62.40243231 77.87515924 62.40713501 83.28234863 C62.41258544 92.36094938 62.40541965 101.4394768 62.39111328 110.51806641 C62.37478817 120.9984228 62.38007718 131.47860408 62.3965925 141.95895624 C62.41022767 150.97411674 62.41211709 159.98922467 62.40427649 169.00439215 C62.39961114 174.38133964 62.39894375 179.75820495 62.40888596 185.13514709 C62.41758291 190.19137286 62.41148394 195.2473739 62.39420319 200.30357552 C62.3902529 202.1538207 62.39134726 204.00408496 62.39799118 205.85432243 C62.44051306 218.90403947 62.09727237 230.70157262 53 241 C45.85001283 246.98394984 39.08005811 249.32630574 29.7578125 249.1953125 C28.60525467 249.19106766 28.60525467 249.19106766 27.42941284 249.18673706 C24.99444479 249.17561311 22.55985538 249.1505236 20.125 249.125 C18.46615118 249.11496011 16.80729654 249.10583603 15.1484375 249.09765625 C11.09881421 249.07569937 7.04947113 249.04122406 3 249 C3 248.67 3 248.34 3 248 C4.299375 247.79375 5.59875 247.5875 6.9375 247.375 C14.52368686 245.64544482 20.03622426 241.84712486 24.4375 235.4375 C28.11476587 229.56016053 29.29660446 224.73438187 29.28088379 217.81077576 C29.28682603 216.99009285 29.29276828 216.16940993 29.29889059 215.32385784 C29.3162237 212.57580843 29.31927757 209.8279337 29.32226562 207.07983398 C29.33152509 205.10844044 29.34157483 203.13705048 29.35235596 201.16566467 C29.37858283 195.80995528 29.39149033 190.45429601 29.40037727 185.09853244 C29.40624365 181.74971835 29.41445431 178.40091789 29.42338562 175.05211067 C29.45073325 164.56666899 29.47006627 154.08125853 29.4777894 143.59578365 C29.48674319 131.50685842 29.52180499 119.41838633 29.57979059 107.32959884 C29.62309037 97.97651228 29.64320156 88.62355288 29.64587164 79.27036721 C29.6479635 73.68857111 29.65968673 68.10720103 29.69551086 62.52551079 C29.72858639 57.26975405 29.73272918 52.01474089 29.71523285 46.75891685 C29.71369799 44.83692679 29.72229987 42.91489583 29.74214935 40.99300766 C29.85604583 29.27145891 29.44061478 19.30938634 21.25669098 10.02153683 C15.47726249 4.41762156 7.89736173 1.67211589 0 1 C0 0.67 0 0.34 0 0 Z " fill="#FFD4A1" transform="translate(187,263)"/>
<path d="M0 0 C5.42626261 4.55892076 10.61211447 9.3038385 15.6875 14.25 C16.80608398 15.29994141 16.80608398 15.29994141 17.94726562 16.37109375 C24.01783856 22.31711435 27.69446085 28.49010939 28.6015625 37.0546875 C28.60929688 38.31539062 28.61703125 39.57609375 28.625 40.875 C28.65851563 42.13054687 28.69203125 43.38609375 28.7265625 44.6796875 C27.37534677 57.4633162 17.50530939 66.35401834 8.90136719 74.85913086 C7.56572112 76.20128233 6.23135979 77.54471333 4.8981781 78.88931274 C1.29813099 82.51230058 -2.32036758 86.11630383 -5.94333363 89.71635509 C-9.74496785 93.49897483 -13.53144208 97.29672105 -17.32025146 101.09217834 C-23.68162045 107.45987328 -30.05513757 113.81520822 -36.43603516 120.16333008 C-43.79961474 127.48939694 -51.14333144 134.83492592 -58.47679448 142.19113058 C-65.551649 149.28697279 -72.64059035 156.36858087 -79.73592377 163.44394112 C-82.7467046 166.44676212 -85.75247583 169.45446725 -88.75424957 172.46629143 C-92.29206437 176.0146989 -95.84208762 179.55043362 -99.40168571 183.07698441 C-100.70153611 184.36866565 -101.99722296 185.66455327 -103.28826332 186.96504021 C-112.25066809 195.98577084 -120.75626803 204.01742455 -134.1875 204.25 C-145.11910786 204.13339618 -152.4565836 199.65337874 -160 192 C-161.2556624 190.74264214 -162.51223859 189.48619644 -163.76953125 188.23046875 C-167.51302083 184.48697917 -171.25651042 180.74348958 -175 177 C-171.12375078 177 -168.5439293 178.47244427 -165 180 C-157.50585555 182.06088972 -150.0272107 181.20610187 -143 178 C-134.94794668 172.91772537 -128.44996812 165.74656343 -121.76269531 159.05322266 C-120.43836866 157.73488789 -119.11363529 156.41696158 -117.78852844 155.09941101 C-114.20753858 151.53601449 -110.63298986 147.9662248 -107.06014729 144.39466143 C-104.82527057 142.16120989 -102.58897428 139.92918999 -100.35216522 137.6976738 C-92.54238172 129.9063638 -84.73775207 122.10993403 -76.93798828 114.30859375 C-69.67617604 107.04557869 -62.4032681 99.79380758 -55.12509656 92.54718935 C-48.86639181 86.31465009 -42.6154368 80.07440954 -36.37044024 73.82813489 C-32.64486347 70.10204886 -28.91626585 66.37911575 -25.17984772 62.66389847 C-21.66775011 59.17118925 -18.16541876 55.66897185 -14.67027855 52.15929604 C-13.38862673 50.87555628 -12.10357298 49.59520227 -10.8148365 48.31857491 C-9.0512164 46.57045364 -7.30048123 44.81033246 -5.55230713 43.04678345 C-5.04413743 42.54890088 -4.53596774 42.05101831 -4.01239896 41.53804839 C3.14183974 34.24477885 5.29373821 26.41386245 5.2265625 16.37109375 C4.81761743 10.28627314 2.70660927 5.37762363 0 0 Z " fill="#FFD4A1" transform="translate(484,122)"/>
<path d="M0 0 C9.70857864 5.42110753 12.94586266 13.40101776 16.28637695 23.53027344 C16.67724991 24.68405487 17.06812286 25.8378363 17.47084045 27.02658081 C18.53341892 30.1726439 19.58512798 33.32190711 20.63100839 36.47353268 C21.50870123 39.11389679 22.39371169 41.75178402 23.27863568 44.38973165 C25.36803363 50.61882573 27.44491246 56.85199559 29.51391602 63.08789062 C31.64106583 69.49832102 33.78894316 75.90153127 35.94725066 82.30153155 C37.80649617 87.81713235 39.65278008 93.33695621 41.48890847 98.86029553 C42.58264209 102.15000831 43.68100557 105.43797276 44.7918644 108.72194672 C46.03151074 112.38888347 47.24403296 116.06448226 48.4543457 119.74121094 C48.82052002 120.81275421 49.18669434 121.88429749 49.56396484 122.98831177 C52.07066918 130.71151363 54.02478918 138.71048203 50.421875 146.33203125 C46.37540459 150.69795985 43.19256921 153.11322673 37.171875 153.51953125 C32.58692734 153.24457187 29.39202781 152.35906981 25.90625 149.3125 C18.35303538 139.49014738 15.78018425 125.00647264 12.23999023 113.35302734 C8.00086702 99.46530062 3.40624947 85.69302672 -1.17713928 71.91609573 C-1.8262688 69.96261726 -2.47342463 68.00849553 -3.11999512 66.0541687 C-4.34773834 62.34410402 -5.5834899 58.63673596 -6.8203125 54.9296875 C-7.19189484 53.8057962 -7.56347717 52.68190491 -7.94631958 51.5239563 C-9.65153237 46.43822452 -11.41333522 41.63702527 -13.953125 36.89453125 C-14.283125 35.90453125 -14.613125 34.91453125 -14.953125 33.89453125 C-17.32937845 32.71061902 -17.32937845 32.71061902 -19.953125 31.89453125 C-21.438125 31.39953125 -21.438125 31.39953125 -22.953125 30.89453125 C-29.0587983 30.29593583 -32.81682285 31.90613727 -37.953125 34.89453125 C-36.8339355 23.23413827 -33.18056888 10.68659497 -23.953125 2.89453125 C-17.19847917 -2.61946534 -8.10990059 -3.03584903 0 0 Z " fill="#FA352E" transform="translate(133.953125,312.10546875)"/>
<path d="M0 0 C14.40679878 12.15163119 28.07699432 24.32045598 30.37109375 44.21875 C30.65667756 58.32995009 26.62355035 70.49371391 17 81 C9.33110712 88.17282813 1.28718021 92.1902183 -9 94 C-8.95359375 94.81082031 -8.9071875 95.62164062 -8.859375 96.45703125 C-8.44761428 109.08926205 -12.10795852 119.07857642 -20 129 C-25.28248845 134.13599203 -31.1419685 138.28043578 -38 141 C-38.73476563 141.29777344 -39.46953125 141.59554687 -40.2265625 141.90234375 C-51.4741092 145.8774539 -63.25413395 145.04893706 -74 140 C-81.77960044 135.98925143 -87.5941512 130.91675074 -93.625 124.625 C-94.43839844 123.79355469 -95.25179688 122.96210938 -96.08984375 122.10546875 C-98.06947714 120.07925575 -100.03905703 118.04427824 -102 116 C-99 116 -99 116 -96 117.375 C-84.03002684 122.70340577 -71.22563763 121.79207123 -59 118 C-51.88395419 114.96869348 -45.20658449 110.604088 -41.125 103.9375 C-39.87840167 100.56347339 -39.75964485 97.2612747 -39.5625 93.6875 C-39.00804408 84.5651309 -36.36979055 77.45120965 -30.046875 70.75 C-25.12871425 66.54516028 -19.31495388 64.34537297 -13.1875 62.5 C-9.03132925 61.19252274 -6.83399412 59.38504853 -4 56 C-3.154375 55.0925 -2.30875 54.185 -1.4375 53.25 C6.24242881 43.83121938 7.91271709 31.75468974 7 20 C5.86573877 13.89363475 3.99870879 8.45219779 1 3 C0.505 1.515 0.505 1.515 0 0 Z " fill="#FA352E" transform="translate(388,93)"/>
<path d="M0 0 C5.74478995 4.77578924 11.044551 9.89379085 16.3125 15.1875 C17.12267578 15.99380859 17.93285156 16.80011719 18.76757812 17.63085938 C19.54166016 18.40623047 20.31574219 19.18160156 21.11328125 19.98046875 C21.81235596 20.68067139 22.51143066 21.38087402 23.23168945 22.10229492 C27.49119089 26.67348154 27.43178077 30.04360254 27.30859375 36.05078125 C26.88711033 40.07888231 25.82379136 42.10380373 23 45 C19.10022888 48.13956257 15.21529791 49.8120899 10.07641602 49.50097656 C1.31691763 47.38757378 -5.56310577 38.79605701 -11.5625 32.625 C-12.47580078 31.69816406 -13.38910156 30.77132812 -14.33007812 29.81640625 C-16.56044079 27.55101171 -18.78343911 25.27888669 -21 23 C-19.48623919 19.43235715 -17.39486871 17.16293713 -14.6484375 14.453125 C-13.79765625 13.60878906 -12.946875 12.76445312 -12.0703125 11.89453125 C-11.18085938 11.02183594 -10.29140625 10.14914063 -9.375 9.25 C-8.4778125 8.36183594 -7.580625 7.47367188 -6.65625 6.55859375 C-4.44192996 4.36783031 -2.22307565 2.18187237 0 0 Z " fill="#FEE5AE" transform="translate(321,157)"/>
<path d="M0 0 C2.27071098 1.0769285 3.70314093 2.28748007 5.48583984 4.05981445 C6.13166016 4.70176758 6.77748047 5.3437207 7.44287109 6.00512695 C8.43867188 7.01833008 8.43867188 7.01833008 9.45458984 8.05200195 C10.11845703 8.70426758 10.78232422 9.3565332 11.46630859 10.02856445 C16.30592904 14.89716466 20.91532058 19.77850671 21.45458984 26.92700195 C21.11879351 32.70269893 18.50455598 36.41578497 14.45458984 40.36450195 C9.22295339 42.70005394 4.58034506 42.98790134 -1.04541016 41.92700195 C-4.34454119 40.16992285 -6.53401482 37.66349599 -9.04541016 34.92700195 C-10.16658074 33.80207249 -11.29336774 32.68272555 -12.42431641 31.56762695 C-15.65689784 28.37872315 -18.85655155 25.15961014 -22.04541016 21.92700195 C-19.6821891 16.4879034 -15.28993711 12.76303966 -11.17041016 8.61450195 C-10.35443359 7.7656543 -9.53845703 6.91680664 -8.69775391 6.04223633 C-7.90755859 5.24495117 -7.11736328 4.44766602 -6.30322266 3.6262207 C-5.58279785 2.89234131 -4.86237305 2.15846191 -4.12011719 1.40234375 C-2.04541016 -0.07299805 -2.04541016 -0.07299805 0 0 Z " fill="#FEE5AE" transform="translate(366.04541015625,114.072998046875)"/>
<path d="M0 0 C0.66 0 1.32 0 2 0 C3.95747677 5.72907011 5.91466228 11.4582396 7.87158203 17.1875 C8.5368672 19.13511828 9.2022309 21.08270973 9.86767578 23.03027344 C10.82605479 25.8352153 11.78414811 28.64025462 12.7421875 31.4453125 C13.03809784 32.31116974 13.33400818 33.17702698 13.6388855 34.06912231 C14.18752683 35.67583651 14.73397602 37.28330168 15.277771 38.8916626 C15.89637497 40.69749689 16.54685075 42.49235902 17.20361328 44.28466797 C18 47 18 47 18 52 C6.78 52 -4.44 52 -16 52 C-14.875 44.125 -14.875 44.125 -13.50952148 40.07446289 C-13.20928574 39.17405777 -12.90904999 38.27365265 -12.59971619 37.34596252 C-12.11529808 35.92367592 -12.11529808 35.92367592 -11.62109375 34.47265625 C-11.28956802 33.48373886 -10.9580423 32.49482147 -10.61647034 31.47593689 C-9.56246061 28.33619181 -8.50011455 25.199342 -7.4375 22.0625 C-6.71884779 19.92661836 -6.00074284 17.79055251 -5.28320312 15.65429688 C-3.52846621 10.4340483 -1.76688723 5.21614777 0 0 Z " fill="#FEE3AC" transform="translate(123,359)"/>
</svg>
